<svg width="43" height="62" viewBox="0 0 43 62" fill="none" xmlns="http://www.w3.org/2000/svg">
<g clip-path="url(#clip0_1924_233)">
<path opacity="0.2" d="M35 58.4C35 60.4 28.8 62 21.2 62C13.6 62 7.40002 60.4 7.40002 58.4C7.40002 56.4 13.6 54.8 21.2 54.8C28.8 54.7 35 56.4 35 58.4Z" fill="#05141F"/>
<path d="M21.4 0C9.6 0 0 9.6 0 21.4C0 34 21.4 58.5 21.4 58.5C21.4 58.5 42.8 35 42.8 21.4C42.8 9.6 33.2 0 21.4 0ZM21.4 33.7C14.1 33.7 8.2 27.8 8.2 20.5C8.2 13.2 14.1 7.3 21.4 7.3C28.7 7.3 34.6 13.2 34.6 20.5C34.6 27.8 28.7 33.7 21.4 33.7Z" fill="#010101"/>
<path d="M21.7 38.4C30.9232 38.4 38.4 30.9232 38.4 21.7C38.4 12.4768 30.9232 5 21.7 5C12.4768 5 5 12.4768 5 21.7C5 30.9232 12.4768 38.4 21.7 38.4Z" fill="white"/>
</g>
<path d="M25.5214 29.4653C26.0725 29.3964 29.9044 28.9314 32.6083 27.5794C35.5361 26.1156 36.9483 23.7475 36.9483 21.6464C36.9483 17.1083 30.5933 13.6036 21.4914 13.6036C12.3894 13.6036 6.05164 17.0825 6.05164 21.6464C6.05164 23.7733 7.44664 26.1672 10.3916 27.5794C13.1127 28.8883 16.9705 29.3706 17.5475 29.4653L21.4914 17.9264L25.5214 29.4653ZM21.4914 16.1267C21.4914 16.1267 15.4894 24.1264 14.9125 24.8497C12.6994 24.6517 8.86747 23.1878 8.86747 20.6819C8.86747 17.4958 14.4475 14.525 21.4914 14.525C28.8883 14.525 34.1152 17.4958 34.1152 20.6819C34.1152 23.205 30.2833 24.6431 28.0702 24.8239C27.4675 24.0575 21.4914 16.1267 21.4914 16.1267Z" fill="black"/>
<defs>
<clipPath id="clip0_1924_233">
<rect width="42.8" height="62" fill="white"/>
</clipPath>
</defs>
</svg>
